<?xml version="1.0" encoding="UTF-8"?><svg id="Layer_2" xmlns="http://www.w3.org/2000/svg" xmlns:xlink="http://www.w3.org/1999/xlink" viewBox="0 0 808.26 743.14"><defs><style>.cls-1{fill:none;}.cls-2{fill:#df2027;}.cls-3{fill:#fff;}.cls-4{fill:gold;}.cls-5{clip-path:url(#clippath);}</style><clipPath id="clippath"><path class="cls-1" d="M646.94,371c0-134.29-108.86-243.15-243.15-243.15-89.28,0-167.31,48.11-209.6,119.83-6.21,10.53,3.94,27.94-.65,39.41-11.17,27.92-32.9,52.01-32.9,83.91,0,134.29,108.86,243.15,243.15,243.15,98.42,0,183.19-58.48,221.44-142.58,1.69-3.71-.1-22.91-.1-22.91,0,0,21.81-59.18,21.81-77.66ZM253.05,291.02c-8.55,0-15.48-6.93-15.48-15.48s6.93-15.48,15.48-15.48,15.48,6.93,15.48,15.48-6.93,15.48-15.48,15.48Z"/></clipPath></defs><g id="Layer_2-2"><g id="Logo_Updated_20250702"><circle class="cls-4" cx="403.71" cy="371.58" r="255.83"/><g id="Lays_Logo_PMS"><path class="cls-3" d="M403.71,93c-153.85,0-278.57,124.72-278.57,278.57s124.72,278.57,278.57,278.57,278.57-124.72,278.57-278.57S557.56,93,403.71,93ZM403.71,627.41c-141.29,0-255.83-114.54-255.83-255.83s114.54-255.83,255.83-255.83,255.83,114.54,255.83,255.83-114.54,255.83-255.83,255.83h0Z"/><path class="cls-2" d="M403.71,104.37c-147.57,0-267.2,119.63-267.2,267.2s119.63,267.2,267.2,267.2,267.2-119.63,267.2-267.2S551.28,104.37,403.71,104.37ZM403.71,627.41c-141.29,0-255.83-114.54-255.83-255.83s114.54-255.83,255.83-255.83,255.83,114.54,255.83,255.83-114.54,255.83-255.83,255.83h0Z"/><g id="Rays_PMS_102_80_TINT"><g class="cls-5"><path id="Rays_PMS_102_80_TINT-2" class="cls-3" d="M676.23,363.44l-.14-4.26-240.61,8.04,237.39-40.04-.71-4.2-237.39,40.04,229.94-71.33-1.26-4.07-229.94,71.33,218.38-101.34-1.79-3.87-218.38,101.34,202.92-129.54-2.29-3.59-202.92,129.54,183.85-155.43-2.75-3.26-183.85,155.43,161.49-178.55-3.16-2.86-161.49,178.55,136.23-198.48-3.52-2.41-136.25,198.48,108.58-214.87-3.81-1.92-108.58,214.87,78.98-227.43-4.03-1.4-78.97,227.42,47.95-235.92-4.18-.85-47.95,235.92,16.08-240.2-4.25-.28-16.08,240.21-16.08-240.22-4.25.28,16.08,240.21-47.96-235.92-4.18.85,47.95,235.92-78.97-227.42-4.03,1.4,78.97,227.43-108.57-214.88-3.81,1.92,108.58,214.87-136.25-198.47-3.52,2.41,136.25,198.49-161.48-178.56-3.16,2.86,161.49,178.55-183.85-155.43-2.75,3.26,183.85,155.43-202.93-129.55-2.29,3.59,202.93,129.54-218.39-101.33-1.79,3.87,218.38,101.34-229.95-71.33-1.26,4.07,229.93,71.33-237.39-40.04-.71,4.2,237.39,40.04-240.61-8.04-.14,4.26,240.62,8.04-239.54,24.1.43,4.24,239.54-24.1-234.19,55.81.99,4.15,234.18-55.81-224.65,86.52,1.53,3.98,224.67-86.53-211.13,115.7,2.05,3.74,211.13-115.7-193.82,142.81,2.53,3.43,193.81-142.8-173.05,167.36,2.96,3.06,173.06-167.37-149.21,188.94,3.35,2.64,149.2-188.94-122.69,207.14,3.67,2.17,122.69-207.14-93.99,221.64,3.93,1.66,93.98-221.64-63.6,232.19,4.11,1.13,63.6-232.19-32.09,238.6,4.23.57,32.09-238.6v240.75h4.26v-240.75l32.09,238.61,4.23-.57-32.09-238.59,63.6,232.18,4.11-1.13-63.6-232.19,93.99,221.65,3.93-1.66-93.98-221.64,122.69,207.14,3.67-2.17-122.68-207.13,149.2,188.93,3.35-2.64-149.21-188.94,173.06,167.37,2.96-3.06-173.06-167.37,193.82,142.81,2.53-3.43-193.82-142.81,211.12,115.7,2.05-3.74-211.12-115.7,224.65,86.52,1.53-3.98-224.66-86.53,234.19,55.81.99-4.15-234.19-55.81,239.53,24.1.43-4.24-239.54-24.1,240.61-8.04h0Z"/></g></g><path id="Ribbon_PMS_2035" class="cls-2" d="M613.59,202.74c-.68.14-18.48,3.74-46.51,9.44-5.72-10.46-17.1-14.92-26.86-13.02-7.35,1.43-13.14,5.06-16.75,10.51-2.36,3.56-3.65,7.68-3.86,12.17-80.91,16.49-195.86,40.05-269.07,55.67l.54-26.45-46.96,9.13c-11.64,2.26-17.7,9.6-18.01,21.86l-.18,9.86c-.18.05-.37.09-.54.14-51.95,15.18-77.3,68.34-80.96,123.98l-3.28,188.61s23.88-37.26,74.03-50.28c8.85-2.3,120.46-26.01,230.02-49.18,9.25,9.83,23.27,15.2,40.31,15.2,5.67,0,11.67-.59,17.94-1.81,22.33-4.34,39.42-15.08,50.8-31.91,1.12-1.66,2.17-3.4,3.18-5.18,60.99-12.87,105.52-22.24,105.52-22.24,57.35-11.87,79.25-60,82.04-121.44l2.11-174.37s-24.79,24.89-93.51,39.32h0Z"/><g id="Lay_s"><path id="Lay_s-2" class="cls-3" d="M594.07,399.76c-33.9,6.59-48.85-6.53-51.72-20.05-2.63-12.39,6.03-26.97,20.15-26.98.36,18.3,12.17,27.73,28.37,24.59,11.3-2.2,18.84-9.14,16.93-18.14-4.23-19.9-54.53-14.81-62.11-50.47-5.98-28.15,13.08-51.01,44.34-57.09,30.51-5.93,45.22,6.06,48.17,19.95,2.47,11.64-5.84,24.2-18.83,23.99-1.92-16.43-12.28-24.58-26.22-21.87-10.92,2.12-17.34,8.84-15.34,18.23,4.47,21.02,55.52,15.79,63.34,52.58,5.66,26.65-15.07,49.05-47.08,55.28v-.02ZM561.01,222.08c-2.31-10.89-11.5-15.35-19.03-13.89-10.55,2.05-14.76,9.9-12.69,19.66,1.76,8.26,8.31,13.24,9.98,21.12.8,3.75.09,7.8-2.29,11.39,11.52-3.02,27.38-22.52,24.02-38.29h.01ZM321.81,471.45l-84.75,16.47,4.59-225.65-35.78,6.96c-7.16,1.39-10.36,4.75-10.57,13l-4.62,249.51,127.31-24.75c29-5.64,42.26-28.15,31.99-54.3-5.26,8.45-14.99,16.2-28.17,18.77h0ZM493.64,272.31c-4.52.88-7.43,3.79-7.52,8.89l-1.27,80.77c-.42,16.5-7.58,30.79-20.38,33.28-10.92,2.12-17.04-4.51-16.43-23.78l1.91-90.67-30.51,5.93c-4.52.88-7.97,3.11-8.06,8.21l-1.74,78.52c-.06,3.36.02,6.54.22,9.58-1.75,13.5-7.9,24.75-18.38,26.79-9.04,1.76-13.79-3.97-13.62-16.12l1.72-100.8c-11.04,5.27-16.45,7.5-22.1,8.6-11.68,2.27-23.02.57-35.07,2.91-36.16,7.03-59.18,40.82-59.28,84.62.29,45.68,19.76,70.82,50.65,64.82,16.95-3.29,28.08-13.67,34.62-29.01,7.91,11.36,20.43,16.75,35.49,13.82,16.53-3.21,26.6-13.57,32.55-29.52,7.9,14.84,22.19,20.45,40.47,16.89,12.43-2.42,20.81-9.13,26.96-18.92l-.21,21.15c-.32,31.73-7.89,49.61-28.23,53.57-13.94,2.71-23.01-4.91-25-14.29-1.28-6.01-1.05-12.31,4.43-21.58-3.25-.54-6.35-.33-10.11.4-13.94,2.71-25.86,16.75-21.87,35.52,5.03,23.65,27.94,33.66,58.45,27.73,40.3-7.83,59.44-37.75,60.23-87.54l3.35-155.84-31.26,6.08h-.01ZM339.98,392.92c0,12.8-7.06,27.32-19.18,29.48-12.09,2.15-20.9-11.57-20.65-36.25.12-28.95,9.29-52.24,30.55-55.58,4.22-.43,7.32-.64,10.11-.4l-.83,62.76h0Z"/><path id="_horizontal" class="cls-3" d="M657.31,367.41c4.95,0,8.95,4.01,8.95,8.95s-4,8.95-8.95,8.95-8.95-4-8.95-8.95,4.01-8.95,8.95-8.95M657.31,383.38c4.08,0,6.88-3.09,6.88-7.02s-2.8-7.02-6.88-7.02-6.88,3.09-6.88,7.02,2.8,7.02,6.88,7.02M653.8,371.37h3.84c2.54,0,3.86.82,3.86,2.92,0,1.79-1.13,2.54-2.62,2.71l2.69,4.41h-2.21l-2.54-4.41h-1.08v4.41h-1.93v-10.04h-.01ZM657.43,375.63c1.04,0,2-.16,2-1.53,0-1.18-1.15-1.37-1.98-1.37h-1.72v2.9h1.7,0Z"/></g></g></g><rect class="cls-1" width="808.26" height="743.14"/></g></svg>