<svg width="151" height="12" viewBox="0 0 151 12" fill="none" xmlns="http://www.w3.org/2000/svg">
<g id="Group 1000002862">
<path id="Vector" d="M51.7174 6.01481H49.4562V2.256H51.7174C52.741 2.256 53.5869 3.09532 53.5869 4.14528C53.5869 5.19525 52.741 6.01481 51.7174 6.01481ZM51.7174 0.379893H47.5867V11.6267H49.4595V7.88434H51.7207C53.7778 7.88434 55.463 6.19913 55.463 4.14528C55.463 2.09143 53.7778 0.379893 51.7207 0.379893M86.9356 0.379893H84.6448L81.0703 5.36311L80.6819 5.86999L80.9321 6.19584L84.8291 11.6234H87.1199L82.9925 5.87657L86.9356 0.376602V0.379893ZM78.4372 11.6267H80.31V0.379893H78.4372V11.6267ZM98.0113 0.185699L93.5086 11.6234H95.5361L98.2022 4.8299L100.865 11.6234H102.889L98.3865 0.185699H98.0113ZM107.138 7.17668L104.479 0.379893H102.455L106.954 11.8143H107.323L111.829 0.379893H109.804L107.142 7.17668H107.138ZM114.169 11.6267H119.784V9.75716H116.038V6.88704H119.066V5.01422H116.038V2.256H119.784V0.379893H114.169V11.6267ZM129.102 7.56836L124.682 0.383185H123.28V11.63H124.968V4.44809L129.369 11.6267H130.787V0.379893H129.102V7.56507V7.56836ZM139.865 7.51899C139.865 9.15154 139.022 9.94806 137.992 9.94806C136.962 9.94806 136.123 9.15154 136.123 7.51899V0.379893H134.25V7.5157C134.25 10.2805 135.932 11.8143 137.992 11.8143C140.053 11.8143 141.754 10.2805 141.754 7.5157V0.379893H139.865V7.5157V7.51899ZM151 2.2593V0.379893H145.385V11.63H151V9.75716H147.254V6.88704H150.286V5.01422H147.254V2.256H151V2.2593ZM75.284 4.14857C75.284 2.06839 73.5955 0.383185 71.5384 0.383185H69.2837V0.389768H67.5097V11.63H69.3792V2.256H71.5351C72.5653 2.256 73.4112 3.09532 73.4112 4.14528C73.4112 5.19525 72.5653 6.01481 71.5351 6.01481H69.8202L71.2323 7.88434L73.9279 11.6267H76.2253L73.24 7.46633C74.471 6.85741 75.284 5.57376 75.284 4.14528M60.3179 0.202157L55.8185 11.6333H57.8394L60.5055 4.83977L63.1683 11.6333H65.1958L60.6931 0.202157H60.3179Z" fill="#221F20"></path>
<path id="Vector_2" fill-rule="evenodd" clip-rule="evenodd" d="M20.9795 10.3035L19.946 7.66711L20.9795 5.03068L22.013 7.66711L20.9795 10.3035ZM40.366 3.59562L41.9591 1.66684L29.8236 1.62406C29.8236 1.62406 24.7416 3.26648 22.5792 3.96426L21.1671 0.379898H20.7919L19.3799 3.96426C17.2141 3.26648 12.1355 1.62406 12.1355 1.62406L0 1.66684L1.59305 3.59562L13.0275 3.2204L13.1064 3.35205L2.46857 3.86552L4.05832 5.58693L13.8635 4.63571L13.9392 4.76408L5.04575 5.88645L6.9054 7.45646L14.6534 5.97532L14.7192 6.08723L7.86979 7.63749L9.19623 8.77961L15.3446 7.14707L15.4302 7.29518L12.6687 8.2102L13.824 9.22066L15.9996 8.50972L17.4972 8.72695L16.3748 11.5806H18.4056L19.4589 8.89481L20.5154 11.5806H21.437L22.4936 8.89481L23.5468 11.5806H25.5744L24.452 8.72695L25.9496 8.50972L28.1252 9.22066L29.2805 8.2102L26.519 7.29518L26.6046 7.14707L32.7529 8.77961L34.0794 7.63749L27.2299 6.08723L27.2958 5.97532L35.0438 7.45646L36.9034 5.88645L28.01 4.76408L28.0857 4.63571L37.8909 5.58693L39.4806 3.86552L28.8427 3.35205L28.9217 3.2204L40.3561 3.59562H40.366Z" fill="#221F20"></path>
</g>
</svg>
